<?xml version="1.0" encoding="UTF-8"?>
<svg version="1.1" xmlns="http://www.w3.org/2000/svg" width="225" height="225">
<path d="M0 0 C74.25 0 148.5 0 225 0 C225 74.25 225 148.5 225 225 C150.75 225 76.5 225 0 225 C0 150.75 0 76.5 0 0 Z " fill="#55D400" transform="translate(0,0)"/>
<path d="M0 0 C2.96762688 2.02858065 5.44168388 4.48596243 8 7 C8.6703125 7.58652344 9.340625 8.17304687 10.03125 8.77734375 C13.09800898 11.54873865 14.82128015 13.55320037 16.375 17.4375 C15.34791782 27.19478069 0.92444733 37.21948955 -5.83203125 43.96484375 C-7.27469741 45.40818434 -8.71721517 46.85167329 -10.15959167 48.29530334 C-13.16784301 51.30502225 -16.177879 54.31294157 -19.18920898 57.31958008 C-23.05413104 61.1787745 -26.91450484 65.04248267 -30.7735796 68.90752316 C-33.7442256 71.88177398 -36.71723833 74.85364981 -39.69098473 77.82480049 C-41.11632429 79.24947216 -42.54091914 80.67488928 -43.96476173 82.10105705 C-45.94651576 84.0853396 -47.93142756 86.06640733 -49.91723633 88.04663086 C-50.50684647 88.63826523 -51.0964566 89.2298996 -51.70393372 89.83946228 C-56.62908462 94.73887326 -56.62908462 94.73887326 -60.625 95.5 C-64.30733106 94.95446947 -65.01789848 94.40203654 -67.67211914 91.98828125 C-68.37539337 91.35035645 -69.0786676 90.71243164 -69.80325317 90.05517578 C-75.95156674 84.30309502 -81.94712761 78.39955775 -87.92944336 72.47558594 C-89.60784074 70.81891802 -91.29248095 69.16855214 -92.9831543 67.52441406 C-95.43957442 65.13479488 -97.87581969 62.72615973 -100.30859375 60.3125 C-101.06579208 59.58313232 -101.82299042 58.85376465 -102.60313416 58.10229492 C-108.34255433 52.33995749 -108.34255433 52.33995749 -109.05493164 48.1171875 C-108.99123215 44.50245377 -108.51874948 43.51874948 -106 41 C-105.35675781 40.33871094 -104.71351562 39.67742187 -104.05078125 38.99609375 C-103.37402344 38.33738281 -102.69726562 37.67867187 -102 37 C-101.35417969 36.33097656 -100.70835938 35.66195312 -100.04296875 34.97265625 C-94.52312104 29.29011829 -94.52312104 29.29011829 -90.375 28.5 C-82.32857143 29.69206349 -75.52365232 39.35162283 -70 44.9375 C-69.22527344 45.71673828 -68.45054688 46.49597656 -67.65234375 47.29882812 C-65.76589243 49.1969242 -63.88183755 51.09733149 -62 53 C-58.22481791 51.43343365 -55.84843196 49.08404081 -52.98779297 46.19897461 C-52.50274292 45.71261032 -52.01769287 45.22624603 -51.51794434 44.72514343 C-49.92137112 43.12209741 -48.33189289 41.5121981 -46.7421875 39.90234375 C-45.63219378 38.7860777 -44.52168205 37.67032652 -43.41067505 36.55506897 C-40.49078202 33.62188746 -37.57651236 30.68318737 -34.66381836 27.74285889 C-29.9958368 23.03171427 -25.32108135 18.32731448 -20.64310074 13.62610054 C-19.00876275 11.98152285 -17.37787005 10.33358414 -15.74728394 8.68528748 C-14.74944354 7.68062112 -13.75149417 6.67606297 -12.75341797 5.67163086 C-11.88167938 4.79163925 -11.0099408 3.91164764 -10.11178589 3.00498962 C-6.75737674 -0.17978189 -4.5981122 -0.68120181 0 0 Z " fill="#FDFEFC" transform="translate(159,72)"/>
<path d="M0 0 C34.98 0 69.96 0 106 0 C106 33.66 106 67.32 106 102 C105.67 102 105.34 102 105 102 C104.86537354 101.17145508 104.86537354 101.17145508 104.72802734 100.32617188 C100.80814026 76.75803386 93.43792806 55.88910951 77 38 C76.55285645 37.51047852 76.10571289 37.02095703 75.64501953 36.51660156 C55.70024161 14.92174074 29.10479861 3.35315393 0 1 C0 0.67 0 0.34 0 0 Z " fill="#FDFEFD" transform="translate(119,0)"/>
<path d="M0 0 C34.32 0 68.64 0 104 0 C104 0.33 104 0.66 104 1 C103.16339844 1.09796875 102.32679687 1.1959375 101.46484375 1.296875 C74.98600397 4.69836494 53.31770364 14.514956 34 33 C32.97132812 33.93392578 32.97132812 33.93392578 31.921875 34.88671875 C21.49241563 44.67973473 14.84305256 57.12279758 9 70 C8.58878906 70.89847656 8.17757813 71.79695313 7.75390625 72.72265625 C3.97689477 81.99617471 2.70103595 92.18075631 1 102 C0.67 102 0.34 102 0 102 C0 68.34 0 34.68 0 0 Z " fill="#FDFEFD" transform="translate(0,0)"/>
<path d="M0 0 C0.33 0 0.66 0 1 0 C1.09796875 0.98097656 1.1959375 1.96195312 1.296875 2.97265625 C3.65095288 24.916613 10.47448458 44.43770983 24 62 C24.72058594 62.96550781 25.44117187 63.93101562 26.18359375 64.92578125 C31.40114102 71.64999992 37.20484203 76.90363152 44 82 C45.16789062 82.90685547 45.16789062 82.90685547 46.359375 83.83203125 C62.51015436 95.83672128 81.29664731 102.06596564 101 105 C101 105.33 101 105.66 101 106 C67.67 106 34.34 106 0 106 C0 71.02 0 36.04 0 0 Z " fill="#FDFEFD" transform="translate(0,119)"/>
<path d="M0 0 C0.33 0 0.66 0 1 0 C1 34.65 1 69.3 1 105 C-33.65 105 -68.3 105 -104 105 C-104 104.67 -104 104.34 -104 104 C-102.76507813 103.85304688 -101.53015625 103.70609375 -100.2578125 103.5546875 C-76.21121207 100.46663805 -56.69753054 92.38106912 -38 77 C-37.32453125 76.47792969 -36.6490625 75.95585937 -35.953125 75.41796875 C-14.28471793 58.17269982 -3.45839734 29.32704657 -0.296875 2.75390625 C-0.19890625 1.84511719 -0.1009375 0.93632813 0 0 Z " fill="#FDFEFC" transform="translate(224,120)"/>
</svg>
