<?xml version="1.0" standalone="no"?>
<!DOCTYPE svg PUBLIC "-//W3C//DTD SVG 20010904//EN"
 "http://www.w3.org/TR/2001/REC-SVG-20010904/DTD/svg10.dtd">
<svg version="1.0" xmlns="http://www.w3.org/2000/svg"
 width="626.000000pt" height="626.000000pt" viewBox="0 0 626.000000 626.000000"
 preserveAspectRatio="xMidYMid meet">

<g transform="translate(0.000000,626.000000) scale(0.100000,-0.100000)"
fill="#000000" stroke="none">
<path d="M1332 4293 l-834 -3 4 -1159 c2 -638 5 -1161 8 -1164 3 -3 688 -2
1523 1 l1517 5 -2 981 c-1 540 -3 960 -5 934 l-4 -48 -172 0 -172 0 77 -70
c97 -89 164 -189 219 -327 l43 -108 4 -197 c4 -189 3 -199 -23 -283 -48 -157
-122 -283 -224 -378 -28 -26 -51 -50 -51 -52 0 -3 68 -5 150 -5 l150 0 0 -115
0 -115 -1405 0 -1405 0 -2 43 c-1 23 -2 443 -2 933 l-1 891 1403 7 c771 4
1407 4 1412 1 6 -3 10 0 11 7 0 7 1 61 2 120 l2 108 -695 -2 c-382 -2 -1070
-4 -1528 -5z"/>
<path d="M3965 4078 c-73 -40 -73 -163 0 -196 36 -17 1406 -17 1438 -1 38 19
57 52 57 97 0 54 -12 77 -50 97 -25 13 -124 15 -727 15 -488 -1 -704 -4 -718
-12z"/>
<path d="M1310 3813 c0 -77 -62 -212 -133 -290 -53 -57 -148 -113 -194 -113
l-23 0 0 -349 0 -348 61 -6 c71 -6 155 -44 212 -96 42 -38 53 -59 72 -136 l12
-50 581 -3 c320 -1 582 -1 582 1 0 2 -36 39 -80 83 -44 43 -80 85 -80 92 0 8
-8 26 -19 40 -52 75 -105 219 -121 333 -29 201 -2 375 84 554 46 94 68 127
136 198 45 47 90 89 101 92 64 21 -40 25 -592 25 l-599 0 0 -27z m400 -537
c81 -54 102 -176 42 -253 -122 -156 -364 -36 -312 155 31 116 168 166 270 98z"/>
<path d="M4370 3660 c305 -3 562 -9 570 -14 12 -7 13 -7 2 5 -11 12 -106 14
-570 14 l-557 1 555 -6z"/>
<path d="M3776 3651 c-4 -5 3 -7 14 -4 23 6 26 13 6 13 -8 0 -17 -4 -20 -9z"/>
<path d="M3740 3619 c-7 -11 -10 -23 -7 -25 2 -2 9 7 15 21 14 30 7 33 -8 4z"/>
<path d="M4960 3634 c0 -5 4 -14 9 -19 5 -6 14 -26 20 -45 l11 -35 -5 33 c-4
31 -35 89 -35 66z"/>
<path d="M2848 3593 c18 -2 45 -2 60 0 15 2 0 4 -33 4 -33 0 -45 -2 -27 -4z"/>
<path d="M2802 3560 c0 -19 2 -27 5 -17 2 9 2 25 0 35 -3 9 -5 1 -5 -18z"/>
<path d="M2942 3554 c-2 -40 -1 -42 35 -47 48 -8 56 0 10 8 -32 6 -36 11 -40
44 l-4 36 -1 -41z"/>
<path d="M3725 3545 c3 -28 13 -48 35 -67 l30 -28 570 0 569 0 28 26 28 26
-29 -21 c-28 -21 -36 -21 -596 -21 -555 0 -568 0 -593 20 -15 12 -30 38 -36
63 l-11 42 5 -40z"/>
<path d="M2763 3500 c-24 -10 -43 -21 -43 -24 0 -6 77 27 87 37 10 11 1 8 -44
-13z"/>
<path d="M3030 3497 c0 -3 15 -10 32 -16 18 -6 28 -7 23 -2 -12 10 -55 25 -55
18z"/>
<path d="M2669 3433 l-24 -28 28 24 c25 23 32 31 24 31 -2 0 -14 -12 -28 -27z"/>
<path d="M3131 3443 c7 -12 15 -20 18 -17 3 2 -3 12 -13 22 -17 16 -18 16 -5
-5z"/>
<path d="M3105 3359 c-9 -17 -15 -33 -13 -35 3 -2 12 12 21 31 21 43 13 47 -8
4z"/>
<path d="M2813 3368 c-23 -11 -40 -44 -29 -55 3 -4 6 1 6 9 0 27 31 43 94 49
l61 6 -55 1 c-30 0 -65 -4 -77 -10z"/>
<path d="M2965 3360 c27 -12 43 -12 25 0 -8 5 -22 9 -30 9 -10 0 -8 -3 5 -9z"/>
<path d="M3038 3330 c42 -26 56 -26 17 0 -16 11 -34 20 -40 20 -5 0 5 -9 23
-20z"/>
<path d="M2611 3285 c-1 -54 30 -117 70 -144 l34 -23 -31 29 c-41 36 -55 64
-64 127 -7 49 -8 50 -9 11z"/>
<path d="M2781 3288 c-1 -19 30 -42 69 -52 14 -4 6 3 -17 15 -23 11 -44 28
-46 37 -4 15 -5 15 -6 0z"/>
<path d="M3983 3243 c-12 -2 -36 -17 -53 -33 -24 -22 -30 -36 -30 -70 0 -57
14 -79 65 -101 42 -19 76 -19 858 -19 490 0 827 5 849 10 53 15 83 53 83 105
0 52 -30 90 -84 105 -35 10 -1639 12 -1688 3z"/>
<path d="M2960 3204 c47 -14 104 -36 128 -50 50 -30 57 -25 8 6 -41 25 -171
70 -200 69 -12 0 17 -11 64 -25z"/>
<path d="M2740 3105 c0 -5 128 -45 144 -44 6 0 -23 11 -64 25 -85 27 -80 26
-80 19z"/>
<path d="M3151 3093 c7 -12 15 -20 18 -17 3 2 -3 12 -13 22 -17 16 -18 16 -5
-5z"/>
<path d="M2934 3044 c22 -8 49 -22 60 -32 20 -16 20 -16 6 2 -16 20 -70 47
-92 45 -7 0 5 -7 26 -15z"/>
<path d="M3172 3040 c0 -14 2 -19 5 -12 2 6 2 18 0 25 -3 6 -5 1 -5 -13z"/>
<path d="M3176 2969 c-4 -23 -5 -44 -2 -46 2 -2 7 14 11 37 4 23 5 43 2 46 -2
3 -7 -14 -11 -37z"/>
<path d="M2616 2923 c-26 -53 -26 -57 -10 -72 17 -15 17 -15 5 1 -10 14 -8 25
14 68 15 29 25 54 23 56 -2 2 -17 -22 -32 -53z"/>
<path d="M2704 2966 c11 -9 24 -16 30 -16 12 0 7 5 -24 19 -24 11 -24 11 -6
-3z"/>
<path d="M2988 2938 c-10 -10 -14 -18 -9 -18 10 0 36 29 30 34 -2 1 -12 -6
-21 -16z"/>
<path d="M2775 2935 c17 -8 37 -14 45 -14 8 0 -1 7 -20 14 -46 18 -64 17 -25
0z"/>
<path d="M2868 2913 c17 -2 47 -2 65 0 17 2 3 4 -33 4 -36 0 -50 -2 -32 -4z"/>
<path d="M3138 2869 c-29 -41 -85 -75 -145 -87 -36 -7 -38 -10 -39 -47 l-1
-40 4 38 c3 31 8 37 27 37 37 0 128 53 160 92 16 21 28 40 25 42 -2 2 -16 -14
-31 -35z"/>
<path d="M2644 2826 c11 -9 24 -16 30 -16 12 0 7 5 -24 19 -24 11 -24 11 -6
-3z"/>
<path d="M2720 2794 c19 -9 51 -18 70 -20 31 -4 30 -3 -10 9 -83 25 -95 27
-60 11z"/>
<path d="M3861 2797 c-13 -6 -31 -23 -39 -37 -13 -21 -11 -20 12 5 l28 30 371
5 372 6 -360 2 c-270 1 -366 -1 -384 -11z"/>
<path d="M4645 2766 c10 -14 19 -26 22 -26 7 0 -17 39 -28 46 -6 3 -3 -5 6
-20z"/>
<path d="M2822 2730 c0 -14 2 -19 5 -12 2 6 2 18 0 25 -3 6 -5 1 -5 -13z"/>
<path d="M3802 2700 c0 -19 2 -27 5 -17 2 9 2 25 0 35 -3 9 -5 1 -5 -18z"/>
<path d="M4671 2708 c0 -14 -4 -35 -7 -45 -5 -17 -5 -17 6 0 6 10 9 30 7 45
l-4 27 -2 -27z"/>
<path d="M2847 2683 c18 -2 50 -2 70 0 21 2 7 4 -32 4 -38 0 -55 -2 -38 -4z"/>
<path d="M3820 2636 c0 -2 7 -9 15 -16 9 -7 15 -8 15 -2 0 5 -7 12 -15 16 -8
3 -15 4 -15 2z"/>
<path d="M4639 2623 c-13 -16 -12 -17 4 -4 16 13 21 21 13 21 -2 0 -10 -8 -17
-17z"/>
<path d="M3873 2598 c7 -4 172 -8 367 -8 195 0 360 4 367 8 6 4 -159 7 -367 7
-208 0 -373 -3 -367 -7z"/>
<path d="M4224 2383 c-12 -2 -34 -18 -50 -34 -23 -24 -29 -39 -29 -75 0 -39 5
-50 33 -75 l32 -29 548 -1 c301 -1 556 -1 567 0 77 6 117 89 79 162 -30 59
-31 59 -621 58 -296 -1 -548 -4 -559 -6z"/>
</g>
</svg>
