<svg xmlns="http://www.w3.org/2000/svg" xmlns:xlink="http://www.w3.org/1999/xlink" width="378" zoomAndPan="magnify" viewBox="0 0 283.5 81.749997" height="109" preserveAspectRatio="xMidYMid meet" version="1.0"><defs><g/></defs><g fill="#38b6ff" fill-opacity="1"><g transform="translate(19.352764, 56.629158)"><g><path d="M 11.390625 0 L 11.390625 -29.4375 L 1.328125 -29.4375 L 1.328125 -34.515625 L 27.8125 -34.515625 L 27.8125 -29.4375 L 17.703125 -29.4375 L 17.703125 0 Z M 11.390625 0 "/></g></g></g><g fill="#38b6ff" fill-opacity="1"><g transform="translate(48.497304, 56.629158)"><g><path d="M 3.203125 0 L 3.203125 -35.5 L 9.515625 -35.5 L 9.515625 -20.71875 C 10.335938 -22.0625 11.445312 -23.117188 12.84375 -23.890625 C 14.238281 -24.660156 15.84375 -25.046875 17.65625 -25.046875 C 20.675781 -25.046875 23.015625 -24.09375 24.671875 -22.1875 C 26.335938 -20.28125 27.171875 -17.488281 27.171875 -13.8125 L 27.171875 0 L 20.90625 0 L 20.90625 -13.21875 C 20.90625 -15.320312 20.484375 -16.929688 19.640625 -18.046875 C 18.804688 -19.160156 17.488281 -19.71875 15.6875 -19.71875 C 13.90625 -19.71875 12.429688 -19.09375 11.265625 -17.84375 C 10.097656 -16.601562 9.515625 -14.863281 9.515625 -12.625 L 9.515625 0 Z M 3.203125 0 "/></g></g></g><g fill="#38b6ff" fill-opacity="1"><g transform="translate(78.480192, 56.629158)"><g><path d="M 6.609375 -28.25 C 5.453125 -28.25 4.503906 -28.59375 3.765625 -29.28125 C 3.023438 -29.976562 2.65625 -30.851562 2.65625 -31.90625 C 2.65625 -32.957031 3.023438 -33.816406 3.765625 -34.484375 C 4.503906 -35.160156 5.453125 -35.5 6.609375 -35.5 C 7.753906 -35.5 8.695312 -35.160156 9.4375 -34.484375 C 10.175781 -33.816406 10.546875 -32.957031 10.546875 -31.90625 C 10.546875 -30.851562 10.175781 -29.976562 9.4375 -29.28125 C 8.695312 -28.59375 7.753906 -28.25 6.609375 -28.25 Z M 3.453125 0 L 3.453125 -24.453125 L 9.765625 -24.453125 L 9.765625 0 Z M 3.453125 0 "/></g></g></g><g fill="#38b6ff" fill-opacity="1"><g transform="translate(91.647014, 56.629158)"><g><path d="M 3.203125 0 L 3.203125 -24.453125 L 8.78125 -24.453125 L 9.265625 -20.3125 C 10.023438 -21.757812 11.117188 -22.910156 12.546875 -23.765625 C 13.972656 -24.617188 15.660156 -25.046875 17.609375 -25.046875 C 20.628906 -25.046875 22.976562 -24.09375 24.65625 -22.1875 C 26.332031 -20.28125 27.171875 -17.488281 27.171875 -13.8125 L 27.171875 0 L 20.859375 0 L 20.859375 -13.21875 C 20.859375 -15.320312 20.429688 -16.929688 19.578125 -18.046875 C 18.722656 -19.160156 17.390625 -19.71875 15.578125 -19.71875 C 13.804688 -19.71875 12.351562 -19.09375 11.21875 -17.84375 C 10.082031 -16.601562 9.515625 -14.863281 9.515625 -12.625 L 9.515625 0 Z M 3.203125 0 "/></g></g></g><g fill="#38b6ff" fill-opacity="1"><g transform="translate(121.629902, 56.629158)"><g><path d="M 13.5625 -7.296875 C 12.375 -7.296875 11.269531 -7.425781 10.25 -7.6875 L 8.4375 -5.875 C 8.988281 -5.570312 9.738281 -5.320312 10.6875 -5.125 C 11.644531 -4.925781 13.195312 -4.726562 15.34375 -4.53125 C 18.59375 -4.238281 20.957031 -3.46875 22.4375 -2.21875 C 23.914062 -0.96875 24.65625 0.753906 24.65625 2.953125 C 24.65625 4.398438 24.257812 5.773438 23.46875 7.078125 C 22.6875 8.378906 21.472656 9.429688 19.828125 10.234375 C 18.179688 11.035156 16.078125 11.4375 13.515625 11.4375 C 10.023438 11.4375 7.210938 10.785156 5.078125 9.484375 C 2.941406 8.191406 1.875 6.25 1.875 3.65625 C 1.875 1.445312 2.941406 -0.460938 5.078125 -2.078125 C 4.421875 -2.367188 3.851562 -2.675781 3.375 -3 C 2.894531 -3.332031 2.476562 -3.679688 2.125 -4.046875 L 2.125 -5.171875 L 6.40625 -9.71875 C 4.5 -11.394531 3.546875 -13.546875 3.546875 -16.171875 C 3.546875 -17.816406 3.945312 -19.3125 4.75 -20.65625 C 5.5625 -22.007812 6.707031 -23.078125 8.1875 -23.859375 C 9.664062 -24.648438 11.457031 -25.046875 13.5625 -25.046875 C 14.9375 -25.046875 16.21875 -24.847656 17.40625 -24.453125 L 26.671875 -24.453125 L 26.671875 -20.609375 L 22.484375 -20.3125 C 23.140625 -19.0625 23.46875 -17.679688 23.46875 -16.171875 C 23.46875 -14.523438 23.070312 -13.03125 22.28125 -11.6875 C 21.5 -10.34375 20.359375 -9.273438 18.859375 -8.484375 C 17.367188 -7.691406 15.601562 -7.296875 13.5625 -7.296875 Z M 13.5625 -12.125 C 14.84375 -12.125 15.898438 -12.46875 16.734375 -13.15625 C 17.578125 -13.851562 18 -14.84375 18 -16.125 C 18 -17.40625 17.578125 -18.390625 16.734375 -19.078125 C 15.898438 -19.773438 14.84375 -20.125 13.5625 -20.125 C 12.21875 -20.125 11.132812 -19.773438 10.3125 -19.078125 C 9.488281 -18.390625 9.078125 -17.40625 9.078125 -16.125 C 9.078125 -14.84375 9.488281 -13.851562 10.3125 -13.15625 C 11.132812 -12.46875 12.21875 -12.125 13.5625 -12.125 Z M 7.640625 3.015625 C 7.640625 4.222656 8.207031 5.128906 9.34375 5.734375 C 10.476562 6.347656 11.867188 6.65625 13.515625 6.65625 C 15.085938 6.65625 16.367188 6.332031 17.359375 5.6875 C 18.347656 5.050781 18.84375 4.191406 18.84375 3.109375 C 18.84375 2.222656 18.519531 1.484375 17.875 0.890625 C 17.238281 0.296875 15.960938 -0.0664062 14.046875 -0.203125 C 12.703125 -0.296875 11.457031 -0.441406 10.3125 -0.640625 C 9.351562 -0.117188 8.664062 0.453125 8.25 1.078125 C 7.84375 1.703125 7.640625 2.347656 7.640625 3.015625 Z M 7.640625 3.015625 "/></g></g></g><g fill="#38b6ff" fill-opacity="1"><g transform="translate(149.689541, 56.629158)"><g><path d="M 13.3125 0.59375 C 11.144531 0.59375 9.238281 0.238281 7.59375 -0.46875 C 5.945312 -1.175781 4.628906 -2.15625 3.640625 -3.40625 C 2.660156 -4.65625 2.070312 -6.097656 1.875 -7.734375 L 8.234375 -7.734375 C 8.429688 -6.785156 8.960938 -5.972656 9.828125 -5.296875 C 10.703125 -4.628906 11.832031 -4.296875 13.21875 -4.296875 C 14.59375 -4.296875 15.597656 -4.570312 16.234375 -5.125 C 16.878906 -5.6875 17.203125 -6.328125 17.203125 -7.046875 C 17.203125 -8.097656 16.742188 -8.8125 15.828125 -9.1875 C 14.910156 -9.570312 13.628906 -9.945312 11.984375 -10.3125 C 10.929688 -10.539062 9.863281 -10.816406 8.78125 -11.140625 C 7.695312 -11.472656 6.703125 -11.894531 5.796875 -12.40625 C 4.890625 -12.914062 4.15625 -13.570312 3.59375 -14.375 C 3.039062 -15.175781 2.765625 -16.171875 2.765625 -17.359375 C 2.765625 -19.523438 3.625 -21.347656 5.34375 -22.828125 C 7.070312 -24.304688 9.5 -25.046875 12.625 -25.046875 C 15.519531 -25.046875 17.828125 -24.367188 19.546875 -23.015625 C 21.273438 -21.671875 22.304688 -19.816406 22.640625 -17.453125 L 16.671875 -17.453125 C 16.304688 -19.265625 14.941406 -20.171875 12.578125 -20.171875 C 11.390625 -20.171875 10.472656 -19.9375 9.828125 -19.46875 C 9.191406 -19.007812 8.875 -18.4375 8.875 -17.75 C 8.875 -17.03125 9.347656 -16.457031 10.296875 -16.03125 C 11.253906 -15.601562 12.523438 -15.207031 14.109375 -14.84375 C 15.816406 -14.445312 17.382812 -14.007812 18.8125 -13.53125 C 20.238281 -13.0625 21.378906 -12.359375 22.234375 -11.421875 C 23.085938 -10.484375 23.515625 -9.140625 23.515625 -7.390625 C 23.554688 -5.878906 23.164062 -4.515625 22.34375 -3.296875 C 21.519531 -2.085938 20.332031 -1.132812 18.78125 -0.4375 C 17.238281 0.25 15.414062 0.59375 13.3125 0.59375 Z M 13.3125 0.59375 "/></g></g></g><g fill="#5e17eb" fill-opacity="1"><g transform="translate(175.589806, 56.629158)"><g><path d="M 3.359375 0 L 3.359375 -34.515625 L 16.125 -34.515625 C 18.882812 -34.515625 21.164062 -34.050781 22.96875 -33.125 C 24.78125 -32.207031 26.128906 -30.941406 27.015625 -29.328125 C 27.910156 -27.722656 28.359375 -25.921875 28.359375 -23.921875 C 28.359375 -22.015625 27.929688 -20.257812 27.078125 -18.65625 C 26.222656 -17.0625 24.890625 -15.78125 23.078125 -14.8125 C 21.265625 -13.84375 18.945312 -13.359375 16.125 -13.359375 L 9.671875 -13.359375 L 9.671875 0 Z M 9.671875 -18.5 L 15.734375 -18.5 C 17.929688 -18.5 19.515625 -18.984375 20.484375 -19.953125 C 21.453125 -20.921875 21.9375 -22.242188 21.9375 -23.921875 C 21.9375 -25.628906 21.453125 -26.96875 20.484375 -27.9375 C 19.515625 -28.90625 17.929688 -29.390625 15.734375 -29.390625 L 9.671875 -29.390625 Z M 9.671875 -18.5 "/></g></g></g><g fill="#5e17eb" fill-opacity="1"><g transform="translate(205.523372, 56.629158)"><g><path d="M 11.640625 0.59375 C 9.535156 0.59375 7.804688 0.253906 6.453125 -0.421875 C 5.109375 -1.097656 4.109375 -1.992188 3.453125 -3.109375 C 2.796875 -4.222656 2.46875 -5.457031 2.46875 -6.8125 C 2.46875 -9.070312 3.351562 -10.910156 5.125 -12.328125 C 6.90625 -13.742188 9.566406 -14.453125 13.109375 -14.453125 L 19.328125 -14.453125 L 19.328125 -15.046875 C 19.328125 -16.722656 18.847656 -17.953125 17.890625 -18.734375 C 16.941406 -19.523438 15.757812 -19.921875 14.34375 -19.921875 C 13.0625 -19.921875 11.941406 -19.613281 10.984375 -19 C 10.035156 -18.394531 9.445312 -17.503906 9.21875 -16.328125 L 3.0625 -16.328125 C 3.21875 -18.097656 3.8125 -19.640625 4.84375 -20.953125 C 5.882812 -22.273438 7.226562 -23.285156 8.875 -23.984375 C 10.519531 -24.691406 12.363281 -25.046875 14.40625 -25.046875 C 17.882812 -25.046875 20.625 -24.175781 22.625 -22.4375 C 24.632812 -20.695312 25.640625 -18.234375 25.640625 -15.046875 L 25.640625 0 L 20.265625 0 L 19.671875 -3.9375 C 18.953125 -2.625 17.941406 -1.539062 16.640625 -0.6875 C 15.335938 0.164062 13.671875 0.59375 11.640625 0.59375 Z M 13.0625 -4.34375 C 14.875 -4.34375 16.28125 -4.929688 17.28125 -6.109375 C 18.28125 -7.296875 18.914062 -8.757812 19.1875 -10.5 L 13.8125 -10.5 C 12.132812 -10.5 10.929688 -10.191406 10.203125 -9.578125 C 9.484375 -8.972656 9.125 -8.226562 9.125 -7.34375 C 9.125 -6.394531 9.484375 -5.65625 10.203125 -5.125 C 10.929688 -4.601562 11.882812 -4.34375 13.0625 -4.34375 Z M 13.0625 -4.34375 "/></g></g></g><g fill="#5e17eb" fill-opacity="1"><g transform="translate(233.977518, 56.629158)"><g><path d="M 6.265625 10.84375 L 11.9375 -1.625 L 10.453125 -1.625 L 0.9375 -24.453125 L 7.796875 -24.453125 L 14.640625 -7.25 L 21.796875 -24.453125 L 28.5 -24.453125 L 12.96875 10.84375 Z M 6.265625 10.84375 "/></g></g></g><g fill="#004aad" fill-opacity="1"><g transform="translate(35.823001, 16.519853)"><g><path d="M 0.28125 0 L 2.6875 -6.53125 L 3.515625 -6.53125 L 5.90625 0 L 5.078125 0 L 4.484375 -1.671875 L 1.703125 -1.671875 L 1.09375 0 Z M 1.9375 -2.3125 L 4.25 -2.3125 L 3.09375 -5.546875 Z M 1.9375 -2.3125 "/></g></g></g><g fill="#004aad" fill-opacity="1"><g transform="translate(43.226679, 16.519853)"><g><path d="M 0.640625 0 L 0.640625 -6.71875 L 1.421875 -6.71875 L 1.421875 0 Z M 0.640625 0 "/></g></g></g><g fill="#004aad" fill-opacity="1"><g transform="translate(46.509458, 16.519853)"><g><path d="M 0.640625 0 L 0.640625 -6.71875 L 1.421875 -6.71875 L 1.421875 0 Z M 0.640625 0 "/></g></g></g><g fill="#004aad" fill-opacity="1"><g transform="translate(49.792238, 16.519853)"><g/></g></g><g fill="#004aad" fill-opacity="1"><g transform="translate(53.475917, 16.519853)"><g><path d="M 0.6875 0 L 0.6875 -6.53125 L 1.609375 -6.53125 L 3.953125 -1.984375 L 6.28125 -6.53125 L 7.203125 -6.53125 L 7.203125 0 L 6.421875 0 L 6.421875 -5.125 L 4.25 -0.9375 L 3.65625 -0.9375 L 1.46875 -5.125 L 1.46875 0 Z M 0.6875 0 "/></g></g></g><g fill="#004aad" fill-opacity="1"><g transform="translate(62.585759, 16.519853)"><g><path d="M 2.75 0.109375 C 2.3125 0.109375 1.914062 0.0078125 1.5625 -0.1875 C 1.21875 -0.382812 0.945312 -0.664062 0.75 -1.03125 C 0.550781 -1.394531 0.453125 -1.820312 0.453125 -2.3125 C 0.453125 -2.800781 0.550781 -3.226562 0.75 -3.59375 C 0.957031 -3.957031 1.238281 -4.238281 1.59375 -4.4375 C 1.945312 -4.632812 2.335938 -4.734375 2.765625 -4.734375 C 3.203125 -4.734375 3.59375 -4.632812 3.9375 -4.4375 C 4.289062 -4.238281 4.566406 -3.957031 4.765625 -3.59375 C 4.972656 -3.226562 5.078125 -2.800781 5.078125 -2.3125 C 5.078125 -1.820312 4.972656 -1.394531 4.765625 -1.03125 C 4.554688 -0.664062 4.273438 -0.382812 3.921875 -0.1875 C 3.578125 0.0078125 3.1875 0.109375 2.75 0.109375 Z M 2.75 -0.5625 C 3.019531 -0.5625 3.269531 -0.625 3.5 -0.75 C 3.726562 -0.882812 3.910156 -1.082031 4.046875 -1.34375 C 4.191406 -1.601562 4.265625 -1.925781 4.265625 -2.3125 C 4.265625 -2.695312 4.195312 -3.019531 4.0625 -3.28125 C 3.925781 -3.539062 3.738281 -3.734375 3.5 -3.859375 C 3.269531 -3.992188 3.023438 -4.0625 2.765625 -4.0625 C 2.503906 -4.0625 2.253906 -3.992188 2.015625 -3.859375 C 1.785156 -3.734375 1.597656 -3.539062 1.453125 -3.28125 C 1.316406 -3.019531 1.25 -2.695312 1.25 -2.3125 C 1.25 -1.925781 1.316406 -1.601562 1.453125 -1.34375 C 1.597656 -1.082031 1.785156 -0.882812 2.015625 -0.75 C 2.242188 -0.625 2.488281 -0.5625 2.75 -0.5625 Z M 2.75 -0.5625 "/></g></g></g><g fill="#004aad" fill-opacity="1"><g transform="translate(69.318159, 16.519853)"><g><path d="M 0.640625 0 L 0.640625 -4.625 L 1.359375 -4.625 L 1.40625 -3.796875 C 1.550781 -4.085938 1.765625 -4.316406 2.046875 -4.484375 C 2.328125 -4.648438 2.644531 -4.734375 3 -4.734375 C 3.539062 -4.734375 3.972656 -4.566406 4.296875 -4.234375 C 4.628906 -3.898438 4.796875 -3.390625 4.796875 -2.703125 L 4.796875 0 L 4.015625 0 L 4.015625 -2.625 C 4.015625 -3.582031 3.613281 -4.0625 2.8125 -4.0625 C 2.414062 -4.0625 2.082031 -3.914062 1.8125 -3.625 C 1.550781 -3.34375 1.421875 -2.929688 1.421875 -2.390625 L 1.421875 0 Z M 0.640625 0 "/></g></g></g><g fill="#004aad" fill-opacity="1"><g transform="translate(75.86409, 16.519853)"><g><path d="M 2.71875 0.109375 C 2.28125 0.109375 1.890625 0.0078125 1.546875 -0.1875 C 1.203125 -0.394531 0.929688 -0.675781 0.734375 -1.03125 C 0.546875 -1.394531 0.453125 -1.820312 0.453125 -2.3125 C 0.453125 -2.800781 0.546875 -3.222656 0.734375 -3.578125 C 0.929688 -3.941406 1.203125 -4.222656 1.546875 -4.421875 C 1.890625 -4.628906 2.289062 -4.734375 2.75 -4.734375 C 3.195312 -4.734375 3.582031 -4.628906 3.90625 -4.421875 C 4.226562 -4.222656 4.476562 -3.957031 4.65625 -3.625 C 4.832031 -3.300781 4.921875 -2.953125 4.921875 -2.578125 C 4.921875 -2.503906 4.914062 -2.429688 4.90625 -2.359375 C 4.90625 -2.296875 4.90625 -2.222656 4.90625 -2.140625 L 1.21875 -2.140625 C 1.238281 -1.785156 1.320312 -1.488281 1.46875 -1.25 C 1.613281 -1.019531 1.796875 -0.84375 2.015625 -0.71875 C 2.234375 -0.601562 2.46875 -0.546875 2.71875 -0.546875 C 3.039062 -0.546875 3.3125 -0.617188 3.53125 -0.765625 C 3.75 -0.921875 3.910156 -1.125 4.015625 -1.375 L 4.78125 -1.375 C 4.65625 -0.945312 4.414062 -0.59375 4.0625 -0.3125 C 3.71875 -0.03125 3.269531 0.109375 2.71875 0.109375 Z M 2.71875 -4.078125 C 2.351562 -4.078125 2.023438 -3.960938 1.734375 -3.734375 C 1.441406 -3.503906 1.273438 -3.175781 1.234375 -2.75 L 4.140625 -2.75 C 4.117188 -3.164062 3.972656 -3.488281 3.703125 -3.71875 C 3.441406 -3.957031 3.113281 -4.078125 2.71875 -4.078125 Z M 2.71875 -4.078125 "/></g></g></g><g fill="#004aad" fill-opacity="1"><g transform="translate(82.382051, 16.519853)"><g><path d="M 1.140625 2.046875 L 2.296875 -0.453125 L 2.03125 -0.453125 L 0.1875 -4.625 L 1.03125 -4.625 L 2.5625 -1.03125 L 4.1875 -4.625 L 5 -4.625 L 1.96875 2.046875 Z M 1.140625 2.046875 "/></g></g></g><g fill="#004aad" fill-opacity="1"><g transform="translate(88.778807, 16.519853)"><g/></g></g><g fill="#004aad" fill-opacity="1"><g transform="translate(92.462487, 16.519853)"><g><path d="M 2.46875 0 C 2.050781 0 1.71875 -0.0976562 1.46875 -0.296875 C 1.226562 -0.503906 1.109375 -0.878906 1.109375 -1.421875 L 1.109375 -3.96875 L 0.3125 -3.96875 L 0.3125 -4.625 L 1.109375 -4.625 L 1.21875 -5.734375 L 1.890625 -5.734375 L 1.890625 -4.625 L 3.25 -4.625 L 3.25 -3.96875 L 1.890625 -3.96875 L 1.890625 -1.421875 C 1.890625 -1.128906 1.945312 -0.929688 2.0625 -0.828125 C 2.1875 -0.722656 2.398438 -0.671875 2.703125 -0.671875 L 3.1875 -0.671875 L 3.1875 0 Z M 2.46875 0 "/></g></g></g><g fill="#004aad" fill-opacity="1"><g transform="translate(97.283608, 16.519853)"><g><path d="M 0.640625 0 L 0.640625 -4.625 L 1.359375 -4.625 L 1.421875 -3.734375 C 1.554688 -4.046875 1.769531 -4.289062 2.0625 -4.46875 C 2.363281 -4.644531 2.726562 -4.734375 3.15625 -4.734375 L 3.15625 -3.921875 L 2.9375 -3.921875 C 2.664062 -3.921875 2.414062 -3.867188 2.1875 -3.765625 C 1.957031 -3.671875 1.769531 -3.507812 1.625 -3.28125 C 1.488281 -3.050781 1.421875 -2.734375 1.421875 -2.328125 L 1.421875 0 Z M 0.640625 0 "/></g></g></g><g fill="#004aad" fill-opacity="1"><g transform="translate(101.880967, 16.519853)"><g><path d="M 2.1875 0.109375 C 1.800781 0.109375 1.476562 0.046875 1.21875 -0.078125 C 0.96875 -0.210938 0.78125 -0.390625 0.65625 -0.609375 C 0.53125 -0.828125 0.46875 -1.0625 0.46875 -1.3125 C 0.46875 -1.789062 0.644531 -2.15625 1 -2.40625 C 1.363281 -2.664062 1.859375 -2.796875 2.484375 -2.796875 L 3.734375 -2.796875 L 3.734375 -2.84375 C 3.734375 -3.25 3.625 -3.554688 3.40625 -3.765625 C 3.195312 -3.972656 2.914062 -4.078125 2.5625 -4.078125 C 2.257812 -4.078125 2 -4 1.78125 -3.84375 C 1.5625 -3.695312 1.421875 -3.476562 1.359375 -3.1875 L 0.5625 -3.1875 C 0.59375 -3.519531 0.703125 -3.800781 0.890625 -4.03125 C 1.085938 -4.257812 1.332031 -4.429688 1.625 -4.546875 C 1.925781 -4.671875 2.238281 -4.734375 2.5625 -4.734375 C 3.207031 -4.734375 3.691406 -4.5625 4.015625 -4.21875 C 4.347656 -3.875 4.515625 -3.414062 4.515625 -2.84375 L 4.515625 0 L 3.8125 0 L 3.765625 -0.828125 C 3.640625 -0.566406 3.445312 -0.34375 3.1875 -0.15625 C 2.9375 0.0195312 2.601562 0.109375 2.1875 0.109375 Z M 2.296875 -0.546875 C 2.597656 -0.546875 2.851562 -0.625 3.0625 -0.78125 C 3.28125 -0.9375 3.445312 -1.140625 3.5625 -1.390625 C 3.675781 -1.640625 3.734375 -1.898438 3.734375 -2.171875 L 3.734375 -2.1875 L 2.546875 -2.1875 C 2.085938 -2.1875 1.757812 -2.101562 1.5625 -1.9375 C 1.375 -1.78125 1.28125 -1.585938 1.28125 -1.359375 C 1.28125 -1.109375 1.367188 -0.910156 1.546875 -0.765625 C 1.722656 -0.617188 1.972656 -0.546875 2.296875 -0.546875 Z M 2.296875 -0.546875 "/></g></g></g><g fill="#004aad" fill-opacity="1"><g transform="translate(108.137881, 16.519853)"><g><path d="M 0.640625 0 L 0.640625 -4.625 L 1.359375 -4.625 L 1.40625 -3.796875 C 1.550781 -4.085938 1.765625 -4.316406 2.046875 -4.484375 C 2.328125 -4.648438 2.644531 -4.734375 3 -4.734375 C 3.539062 -4.734375 3.972656 -4.566406 4.296875 -4.234375 C 4.628906 -3.898438 4.796875 -3.390625 4.796875 -2.703125 L 4.796875 0 L 4.015625 0 L 4.015625 -2.625 C 4.015625 -3.582031 3.613281 -4.0625 2.8125 -4.0625 C 2.414062 -4.0625 2.082031 -3.914062 1.8125 -3.625 C 1.550781 -3.34375 1.421875 -2.929688 1.421875 -2.390625 L 1.421875 0 Z M 0.640625 0 "/></g></g></g><g fill="#004aad" fill-opacity="1"><g transform="translate(114.683812, 16.519853)"><g><path d="M 2.421875 0.109375 C 1.859375 0.109375 1.394531 -0.03125 1.03125 -0.3125 C 0.664062 -0.59375 0.453125 -0.972656 0.390625 -1.453125 L 1.1875 -1.453125 C 1.238281 -1.203125 1.367188 -0.988281 1.578125 -0.8125 C 1.785156 -0.632812 2.066406 -0.546875 2.421875 -0.546875 C 2.753906 -0.546875 3 -0.613281 3.15625 -0.75 C 3.3125 -0.894531 3.390625 -1.066406 3.390625 -1.265625 C 3.390625 -1.535156 3.285156 -1.71875 3.078125 -1.8125 C 2.878906 -1.90625 2.597656 -1.992188 2.234375 -2.078125 C 1.984375 -2.117188 1.734375 -2.1875 1.484375 -2.28125 C 1.234375 -2.375 1.023438 -2.503906 0.859375 -2.671875 C 0.691406 -2.847656 0.609375 -3.078125 0.609375 -3.359375 C 0.609375 -3.765625 0.757812 -4.09375 1.0625 -4.34375 C 1.363281 -4.601562 1.769531 -4.734375 2.28125 -4.734375 C 2.769531 -4.734375 3.171875 -4.609375 3.484375 -4.359375 C 3.804688 -4.117188 3.992188 -3.773438 4.046875 -3.328125 L 3.265625 -3.328125 C 3.234375 -3.554688 3.128906 -3.738281 2.953125 -3.875 C 2.785156 -4.007812 2.5625 -4.078125 2.28125 -4.078125 C 2 -4.078125 1.78125 -4.015625 1.625 -3.890625 C 1.476562 -3.773438 1.40625 -3.625 1.40625 -3.4375 C 1.40625 -3.25 1.5 -3.097656 1.6875 -2.984375 C 1.882812 -2.878906 2.148438 -2.789062 2.484375 -2.71875 C 2.773438 -2.65625 3.046875 -2.578125 3.296875 -2.484375 C 3.554688 -2.398438 3.769531 -2.269531 3.9375 -2.09375 C 4.101562 -1.914062 4.1875 -1.660156 4.1875 -1.328125 C 4.195312 -0.910156 4.039062 -0.566406 3.71875 -0.296875 C 3.394531 -0.0234375 2.960938 0.109375 2.421875 0.109375 Z M 2.421875 0.109375 "/></g></g></g><g fill="#004aad" fill-opacity="1"><g transform="translate(120.55846, 16.519853)"><g><path d="M 0.890625 0 L 0.890625 -3.96875 L 0.203125 -3.96875 L 0.203125 -4.625 L 0.890625 -4.625 L 0.890625 -5.421875 C 0.890625 -5.867188 1 -6.195312 1.21875 -6.40625 C 1.445312 -6.613281 1.773438 -6.71875 2.203125 -6.71875 L 2.671875 -6.71875 L 2.671875 -6.046875 L 2.328125 -6.046875 C 2.097656 -6.046875 1.929688 -5.992188 1.828125 -5.890625 C 1.722656 -5.796875 1.671875 -5.632812 1.671875 -5.40625 L 1.671875 -4.625 L 2.8125 -4.625 L 2.8125 -3.96875 L 1.671875 -3.96875 L 1.671875 0 Z M 0.890625 0 "/></g></g></g><g fill="#004aad" fill-opacity="1"><g transform="translate(124.876124, 16.519853)"><g><path d="M 2.71875 0.109375 C 2.28125 0.109375 1.890625 0.0078125 1.546875 -0.1875 C 1.203125 -0.394531 0.929688 -0.675781 0.734375 -1.03125 C 0.546875 -1.394531 0.453125 -1.820312 0.453125 -2.3125 C 0.453125 -2.800781 0.546875 -3.222656 0.734375 -3.578125 C 0.929688 -3.941406 1.203125 -4.222656 1.546875 -4.421875 C 1.890625 -4.628906 2.289062 -4.734375 2.75 -4.734375 C 3.195312 -4.734375 3.582031 -4.628906 3.90625 -4.421875 C 4.226562 -4.222656 4.476562 -3.957031 4.65625 -3.625 C 4.832031 -3.300781 4.921875 -2.953125 4.921875 -2.578125 C 4.921875 -2.503906 4.914062 -2.429688 4.90625 -2.359375 C 4.90625 -2.296875 4.90625 -2.222656 4.90625 -2.140625 L 1.21875 -2.140625 C 1.238281 -1.785156 1.320312 -1.488281 1.46875 -1.25 C 1.613281 -1.019531 1.796875 -0.84375 2.015625 -0.71875 C 2.234375 -0.601562 2.46875 -0.546875 2.71875 -0.546875 C 3.039062 -0.546875 3.3125 -0.617188 3.53125 -0.765625 C 3.75 -0.921875 3.910156 -1.125 4.015625 -1.375 L 4.78125 -1.375 C 4.65625 -0.945312 4.414062 -0.59375 4.0625 -0.3125 C 3.71875 -0.03125 3.269531 0.109375 2.71875 0.109375 Z M 2.71875 -4.078125 C 2.351562 -4.078125 2.023438 -3.960938 1.734375 -3.734375 C 1.441406 -3.503906 1.273438 -3.175781 1.234375 -2.75 L 4.140625 -2.75 C 4.117188 -3.164062 3.972656 -3.488281 3.703125 -3.71875 C 3.441406 -3.957031 3.113281 -4.078125 2.71875 -4.078125 Z M 2.71875 -4.078125 "/></g></g></g><g fill="#004aad" fill-opacity="1"><g transform="translate(131.394085, 16.519853)"><g><path d="M 0.640625 0 L 0.640625 -4.625 L 1.359375 -4.625 L 1.421875 -3.734375 C 1.554688 -4.046875 1.769531 -4.289062 2.0625 -4.46875 C 2.363281 -4.644531 2.726562 -4.734375 3.15625 -4.734375 L 3.15625 -3.921875 L 2.9375 -3.921875 C 2.664062 -3.921875 2.414062 -3.867188 2.1875 -3.765625 C 1.957031 -3.671875 1.769531 -3.507812 1.625 -3.28125 C 1.488281 -3.050781 1.421875 -2.734375 1.421875 -2.328125 L 1.421875 0 Z M 0.640625 0 "/></g></g></g><g fill="#004aad" fill-opacity="1"><g transform="translate(135.991444, 16.519853)"><g><path d="M 2.46875 0 C 2.050781 0 1.71875 -0.0976562 1.46875 -0.296875 C 1.226562 -0.503906 1.109375 -0.878906 1.109375 -1.421875 L 1.109375 -3.96875 L 0.3125 -3.96875 L 0.3125 -4.625 L 1.109375 -4.625 L 1.21875 -5.734375 L 1.890625 -5.734375 L 1.890625 -4.625 L 3.25 -4.625 L 3.25 -3.96875 L 1.890625 -3.96875 L 1.890625 -1.421875 C 1.890625 -1.128906 1.945312 -0.929688 2.0625 -0.828125 C 2.1875 -0.722656 2.398438 -0.671875 2.703125 -0.671875 L 3.1875 -0.671875 L 3.1875 0 Z M 2.46875 0 "/></g></g></g><g fill="#004aad" fill-opacity="1"><g transform="translate(140.812565, 16.519853)"><g><path d="M 2.421875 0.109375 C 1.859375 0.109375 1.394531 -0.03125 1.03125 -0.3125 C 0.664062 -0.59375 0.453125 -0.972656 0.390625 -1.453125 L 1.1875 -1.453125 C 1.238281 -1.203125 1.367188 -0.988281 1.578125 -0.8125 C 1.785156 -0.632812 2.066406 -0.546875 2.421875 -0.546875 C 2.753906 -0.546875 3 -0.613281 3.15625 -0.75 C 3.3125 -0.894531 3.390625 -1.066406 3.390625 -1.265625 C 3.390625 -1.535156 3.285156 -1.71875 3.078125 -1.8125 C 2.878906 -1.90625 2.597656 -1.992188 2.234375 -2.078125 C 1.984375 -2.117188 1.734375 -2.1875 1.484375 -2.28125 C 1.234375 -2.375 1.023438 -2.503906 0.859375 -2.671875 C 0.691406 -2.847656 0.609375 -3.078125 0.609375 -3.359375 C 0.609375 -3.765625 0.757812 -4.09375 1.0625 -4.34375 C 1.363281 -4.601562 1.769531 -4.734375 2.28125 -4.734375 C 2.769531 -4.734375 3.171875 -4.609375 3.484375 -4.359375 C 3.804688 -4.117188 3.992188 -3.773438 4.046875 -3.328125 L 3.265625 -3.328125 C 3.234375 -3.554688 3.128906 -3.738281 2.953125 -3.875 C 2.785156 -4.007812 2.5625 -4.078125 2.28125 -4.078125 C 2 -4.078125 1.78125 -4.015625 1.625 -3.890625 C 1.476562 -3.773438 1.40625 -3.625 1.40625 -3.4375 C 1.40625 -3.25 1.5 -3.097656 1.6875 -2.984375 C 1.882812 -2.878906 2.148438 -2.789062 2.484375 -2.71875 C 2.773438 -2.65625 3.046875 -2.578125 3.296875 -2.484375 C 3.554688 -2.398438 3.769531 -2.269531 3.9375 -2.09375 C 4.101562 -1.914062 4.1875 -1.660156 4.1875 -1.328125 C 4.195312 -0.910156 4.039062 -0.566406 3.71875 -0.296875 C 3.394531 -0.0234375 2.960938 0.109375 2.421875 0.109375 Z M 2.421875 0.109375 "/></g></g></g><g fill="#004aad" fill-opacity="1"><g transform="translate(146.687218, 16.519853)"><g/></g></g><g fill="#004aad" fill-opacity="1"><g transform="translate(150.370898, 16.519853)"><g><path d="M 2.1875 0.109375 C 1.800781 0.109375 1.476562 0.046875 1.21875 -0.078125 C 0.96875 -0.210938 0.78125 -0.390625 0.65625 -0.609375 C 0.53125 -0.828125 0.46875 -1.0625 0.46875 -1.3125 C 0.46875 -1.789062 0.644531 -2.15625 1 -2.40625 C 1.363281 -2.664062 1.859375 -2.796875 2.484375 -2.796875 L 3.734375 -2.796875 L 3.734375 -2.84375 C 3.734375 -3.25 3.625 -3.554688 3.40625 -3.765625 C 3.195312 -3.972656 2.914062 -4.078125 2.5625 -4.078125 C 2.257812 -4.078125 2 -4 1.78125 -3.84375 C 1.5625 -3.695312 1.421875 -3.476562 1.359375 -3.1875 L 0.5625 -3.1875 C 0.59375 -3.519531 0.703125 -3.800781 0.890625 -4.03125 C 1.085938 -4.257812 1.332031 -4.429688 1.625 -4.546875 C 1.925781 -4.671875 2.238281 -4.734375 2.5625 -4.734375 C 3.207031 -4.734375 3.691406 -4.5625 4.015625 -4.21875 C 4.347656 -3.875 4.515625 -3.414062 4.515625 -2.84375 L 4.515625 0 L 3.8125 0 L 3.765625 -0.828125 C 3.640625 -0.566406 3.445312 -0.34375 3.1875 -0.15625 C 2.9375 0.0195312 2.601562 0.109375 2.1875 0.109375 Z M 2.296875 -0.546875 C 2.597656 -0.546875 2.851562 -0.625 3.0625 -0.78125 C 3.28125 -0.9375 3.445312 -1.140625 3.5625 -1.390625 C 3.675781 -1.640625 3.734375 -1.898438 3.734375 -2.171875 L 3.734375 -2.1875 L 2.546875 -2.1875 C 2.085938 -2.1875 1.757812 -2.101562 1.5625 -1.9375 C 1.375 -1.78125 1.28125 -1.585938 1.28125 -1.359375 C 1.28125 -1.109375 1.367188 -0.910156 1.546875 -0.765625 C 1.722656 -0.617188 1.972656 -0.546875 2.296875 -0.546875 Z M 2.296875 -0.546875 "/></g></g></g><g fill="#004aad" fill-opacity="1"><g transform="translate(156.627812, 16.519853)"><g><path d="M 0.640625 0 L 0.640625 -4.625 L 1.359375 -4.625 L 1.421875 -3.734375 C 1.554688 -4.046875 1.769531 -4.289062 2.0625 -4.46875 C 2.363281 -4.644531 2.726562 -4.734375 3.15625 -4.734375 L 3.15625 -3.921875 L 2.9375 -3.921875 C 2.664062 -3.921875 2.414062 -3.867188 2.1875 -3.765625 C 1.957031 -3.671875 1.769531 -3.507812 1.625 -3.28125 C 1.488281 -3.050781 1.421875 -2.734375 1.421875 -2.328125 L 1.421875 0 Z M 0.640625 0 "/></g></g></g><g fill="#004aad" fill-opacity="1"><g transform="translate(161.22517, 16.519853)"><g><path d="M 2.71875 0.109375 C 2.28125 0.109375 1.890625 0.0078125 1.546875 -0.1875 C 1.203125 -0.394531 0.929688 -0.675781 0.734375 -1.03125 C 0.546875 -1.394531 0.453125 -1.820312 0.453125 -2.3125 C 0.453125 -2.800781 0.546875 -3.222656 0.734375 -3.578125 C 0.929688 -3.941406 1.203125 -4.222656 1.546875 -4.421875 C 1.890625 -4.628906 2.289062 -4.734375 2.75 -4.734375 C 3.195312 -4.734375 3.582031 -4.628906 3.90625 -4.421875 C 4.226562 -4.222656 4.476562 -3.957031 4.65625 -3.625 C 4.832031 -3.300781 4.921875 -2.953125 4.921875 -2.578125 C 4.921875 -2.503906 4.914062 -2.429688 4.90625 -2.359375 C 4.90625 -2.296875 4.90625 -2.222656 4.90625 -2.140625 L 1.21875 -2.140625 C 1.238281 -1.785156 1.320312 -1.488281 1.46875 -1.25 C 1.613281 -1.019531 1.796875 -0.84375 2.015625 -0.71875 C 2.234375 -0.601562 2.46875 -0.546875 2.71875 -0.546875 C 3.039062 -0.546875 3.3125 -0.617188 3.53125 -0.765625 C 3.75 -0.921875 3.910156 -1.125 4.015625 -1.375 L 4.78125 -1.375 C 4.65625 -0.945312 4.414062 -0.59375 4.0625 -0.3125 C 3.71875 -0.03125 3.269531 0.109375 2.71875 0.109375 Z M 2.71875 -4.078125 C 2.351562 -4.078125 2.023438 -3.960938 1.734375 -3.734375 C 1.441406 -3.503906 1.273438 -3.175781 1.234375 -2.75 L 4.140625 -2.75 C 4.117188 -3.164062 3.972656 -3.488281 3.703125 -3.71875 C 3.441406 -3.957031 3.113281 -4.078125 2.71875 -4.078125 Z M 2.71875 -4.078125 "/></g></g></g><g fill="#004aad" fill-opacity="1"><g transform="translate(167.743131, 16.519853)"><g/></g></g><g fill="#004aad" fill-opacity="1"><g transform="translate(171.426811, 16.519853)"><g><path d="M 0.640625 2.046875 L 0.640625 -4.625 L 1.359375 -4.625 L 1.421875 -3.859375 C 1.578125 -4.085938 1.789062 -4.289062 2.0625 -4.46875 C 2.34375 -4.644531 2.695312 -4.734375 3.125 -4.734375 C 3.582031 -4.734375 3.984375 -4.628906 4.328125 -4.421875 C 4.671875 -4.210938 4.9375 -3.921875 5.125 -3.546875 C 5.3125 -3.179688 5.40625 -2.765625 5.40625 -2.296875 C 5.40625 -1.835938 5.3125 -1.425781 5.125 -1.0625 C 4.9375 -0.695312 4.671875 -0.410156 4.328125 -0.203125 C 3.984375 0.00390625 3.578125 0.109375 3.109375 0.109375 C 2.734375 0.109375 2.394531 0.03125 2.09375 -0.125 C 1.800781 -0.28125 1.578125 -0.5 1.421875 -0.78125 L 1.421875 2.046875 Z M 3.03125 -0.5625 C 3.34375 -0.5625 3.613281 -0.632812 3.84375 -0.78125 C 4.082031 -0.925781 4.269531 -1.128906 4.40625 -1.390625 C 4.550781 -1.660156 4.625 -1.96875 4.625 -2.3125 C 4.625 -2.65625 4.550781 -2.957031 4.40625 -3.21875 C 4.269531 -3.488281 4.082031 -3.695312 3.84375 -3.84375 C 3.613281 -3.988281 3.34375 -4.0625 3.03125 -4.0625 C 2.71875 -4.0625 2.441406 -3.988281 2.203125 -3.84375 C 1.972656 -3.695312 1.789062 -3.488281 1.65625 -3.21875 C 1.519531 -2.957031 1.453125 -2.65625 1.453125 -2.3125 C 1.453125 -1.96875 1.519531 -1.660156 1.65625 -1.390625 C 1.789062 -1.128906 1.972656 -0.925781 2.203125 -0.78125 C 2.441406 -0.632812 2.71875 -0.5625 3.03125 -0.5625 Z M 3.03125 -0.5625 "/></g></g></g><g fill="#004aad" fill-opacity="1"><g transform="translate(178.494846, 16.519853)"><g><path d="M 2.75 0.109375 C 2.3125 0.109375 1.914062 0.0078125 1.5625 -0.1875 C 1.21875 -0.382812 0.945312 -0.664062 0.75 -1.03125 C 0.550781 -1.394531 0.453125 -1.820312 0.453125 -2.3125 C 0.453125 -2.800781 0.550781 -3.226562 0.75 -3.59375 C 0.957031 -3.957031 1.238281 -4.238281 1.59375 -4.4375 C 1.945312 -4.632812 2.335938 -4.734375 2.765625 -4.734375 C 3.203125 -4.734375 3.59375 -4.632812 3.9375 -4.4375 C 4.289062 -4.238281 4.566406 -3.957031 4.765625 -3.59375 C 4.972656 -3.226562 5.078125 -2.800781 5.078125 -2.3125 C 5.078125 -1.820312 4.972656 -1.394531 4.765625 -1.03125 C 4.554688 -0.664062 4.273438 -0.382812 3.921875 -0.1875 C 3.578125 0.0078125 3.1875 0.109375 2.75 0.109375 Z M 2.75 -0.5625 C 3.019531 -0.5625 3.269531 -0.625 3.5 -0.75 C 3.726562 -0.882812 3.910156 -1.082031 4.046875 -1.34375 C 4.191406 -1.601562 4.265625 -1.925781 4.265625 -2.3125 C 4.265625 -2.695312 4.195312 -3.019531 4.0625 -3.28125 C 3.925781 -3.539062 3.738281 -3.734375 3.5 -3.859375 C 3.269531 -3.992188 3.023438 -4.0625 2.765625 -4.0625 C 2.503906 -4.0625 2.253906 -3.992188 2.015625 -3.859375 C 1.785156 -3.734375 1.597656 -3.539062 1.453125 -3.28125 C 1.316406 -3.019531 1.25 -2.695312 1.25 -2.3125 C 1.25 -1.925781 1.316406 -1.601562 1.453125 -1.34375 C 1.597656 -1.082031 1.785156 -0.882812 2.015625 -0.75 C 2.242188 -0.625 2.488281 -0.5625 2.75 -0.5625 Z M 2.75 -0.5625 "/></g></g></g><g fill="#004aad" fill-opacity="1"><g transform="translate(185.227246, 16.519853)"><g><path d="M 2.421875 0.109375 C 1.859375 0.109375 1.394531 -0.03125 1.03125 -0.3125 C 0.664062 -0.59375 0.453125 -0.972656 0.390625 -1.453125 L 1.1875 -1.453125 C 1.238281 -1.203125 1.367188 -0.988281 1.578125 -0.8125 C 1.785156 -0.632812 2.066406 -0.546875 2.421875 -0.546875 C 2.753906 -0.546875 3 -0.613281 3.15625 -0.75 C 3.3125 -0.894531 3.390625 -1.066406 3.390625 -1.265625 C 3.390625 -1.535156 3.285156 -1.71875 3.078125 -1.8125 C 2.878906 -1.90625 2.597656 -1.992188 2.234375 -2.078125 C 1.984375 -2.117188 1.734375 -2.1875 1.484375 -2.28125 C 1.234375 -2.375 1.023438 -2.503906 0.859375 -2.671875 C 0.691406 -2.847656 0.609375 -3.078125 0.609375 -3.359375 C 0.609375 -3.765625 0.757812 -4.09375 1.0625 -4.34375 C 1.363281 -4.601562 1.769531 -4.734375 2.28125 -4.734375 C 2.769531 -4.734375 3.171875 -4.609375 3.484375 -4.359375 C 3.804688 -4.117188 3.992188 -3.773438 4.046875 -3.328125 L 3.265625 -3.328125 C 3.234375 -3.554688 3.128906 -3.738281 2.953125 -3.875 C 2.785156 -4.007812 2.5625 -4.078125 2.28125 -4.078125 C 2 -4.078125 1.78125 -4.015625 1.625 -3.890625 C 1.476562 -3.773438 1.40625 -3.625 1.40625 -3.4375 C 1.40625 -3.25 1.5 -3.097656 1.6875 -2.984375 C 1.882812 -2.878906 2.148438 -2.789062 2.484375 -2.71875 C 2.773438 -2.65625 3.046875 -2.578125 3.296875 -2.484375 C 3.554688 -2.398438 3.769531 -2.269531 3.9375 -2.09375 C 4.101562 -1.914062 4.1875 -1.660156 4.1875 -1.328125 C 4.195312 -0.910156 4.039062 -0.566406 3.71875 -0.296875 C 3.394531 -0.0234375 2.960938 0.109375 2.421875 0.109375 Z M 2.421875 0.109375 "/></g></g></g><g fill="#004aad" fill-opacity="1"><g transform="translate(191.101898, 16.519853)"><g><path d="M 2.421875 0.109375 C 1.859375 0.109375 1.394531 -0.03125 1.03125 -0.3125 C 0.664062 -0.59375 0.453125 -0.972656 0.390625 -1.453125 L 1.1875 -1.453125 C 1.238281 -1.203125 1.367188 -0.988281 1.578125 -0.8125 C 1.785156 -0.632812 2.066406 -0.546875 2.421875 -0.546875 C 2.753906 -0.546875 3 -0.613281 3.15625 -0.75 C 3.3125 -0.894531 3.390625 -1.066406 3.390625 -1.265625 C 3.390625 -1.535156 3.285156 -1.71875 3.078125 -1.8125 C 2.878906 -1.90625 2.597656 -1.992188 2.234375 -2.078125 C 1.984375 -2.117188 1.734375 -2.1875 1.484375 -2.28125 C 1.234375 -2.375 1.023438 -2.503906 0.859375 -2.671875 C 0.691406 -2.847656 0.609375 -3.078125 0.609375 -3.359375 C 0.609375 -3.765625 0.757812 -4.09375 1.0625 -4.34375 C 1.363281 -4.601562 1.769531 -4.734375 2.28125 -4.734375 C 2.769531 -4.734375 3.171875 -4.609375 3.484375 -4.359375 C 3.804688 -4.117188 3.992188 -3.773438 4.046875 -3.328125 L 3.265625 -3.328125 C 3.234375 -3.554688 3.128906 -3.738281 2.953125 -3.875 C 2.785156 -4.007812 2.5625 -4.078125 2.28125 -4.078125 C 2 -4.078125 1.78125 -4.015625 1.625 -3.890625 C 1.476562 -3.773438 1.40625 -3.625 1.40625 -3.4375 C 1.40625 -3.25 1.5 -3.097656 1.6875 -2.984375 C 1.882812 -2.878906 2.148438 -2.789062 2.484375 -2.71875 C 2.773438 -2.65625 3.046875 -2.578125 3.296875 -2.484375 C 3.554688 -2.398438 3.769531 -2.269531 3.9375 -2.09375 C 4.101562 -1.914062 4.1875 -1.660156 4.1875 -1.328125 C 4.195312 -0.910156 4.039062 -0.566406 3.71875 -0.296875 C 3.394531 -0.0234375 2.960938 0.109375 2.421875 0.109375 Z M 2.421875 0.109375 "/></g></g></g><g fill="#004aad" fill-opacity="1"><g transform="translate(196.976551, 16.519853)"><g><path d="M 1.125 -5.65625 C 0.96875 -5.65625 0.835938 -5.703125 0.734375 -5.796875 C 0.628906 -5.898438 0.578125 -6.03125 0.578125 -6.1875 C 0.578125 -6.34375 0.628906 -6.46875 0.734375 -6.5625 C 0.835938 -6.664062 0.96875 -6.71875 1.125 -6.71875 C 1.269531 -6.71875 1.394531 -6.664062 1.5 -6.5625 C 1.601562 -6.46875 1.65625 -6.34375 1.65625 -6.1875 C 1.65625 -6.03125 1.601562 -5.898438 1.5 -5.796875 C 1.394531 -5.703125 1.269531 -5.65625 1.125 -5.65625 Z M 0.734375 0 L 0.734375 -4.625 L 1.515625 -4.625 L 1.515625 0 Z M 0.734375 0 "/></g></g></g><g fill="#004aad" fill-opacity="1"><g transform="translate(200.41782, 16.519853)"><g><path d="M 3.109375 0.109375 C 2.734375 0.109375 2.394531 0.03125 2.09375 -0.125 C 1.800781 -0.28125 1.578125 -0.5 1.421875 -0.78125 L 1.359375 0 L 0.640625 0 L 0.640625 -6.71875 L 1.421875 -6.71875 L 1.421875 -3.859375 C 1.578125 -4.085938 1.789062 -4.289062 2.0625 -4.46875 C 2.34375 -4.644531 2.695312 -4.734375 3.125 -4.734375 C 3.582031 -4.734375 3.984375 -4.628906 4.328125 -4.421875 C 4.671875 -4.210938 4.9375 -3.921875 5.125 -3.546875 C 5.3125 -3.179688 5.40625 -2.765625 5.40625 -2.296875 C 5.40625 -1.835938 5.3125 -1.425781 5.125 -1.0625 C 4.9375 -0.695312 4.671875 -0.410156 4.328125 -0.203125 C 3.984375 0.00390625 3.578125 0.109375 3.109375 0.109375 Z M 3.03125 -0.5625 C 3.34375 -0.5625 3.613281 -0.632812 3.84375 -0.78125 C 4.082031 -0.925781 4.269531 -1.128906 4.40625 -1.390625 C 4.550781 -1.660156 4.625 -1.96875 4.625 -2.3125 C 4.625 -2.65625 4.550781 -2.957031 4.40625 -3.21875 C 4.269531 -3.488281 4.082031 -3.695312 3.84375 -3.84375 C 3.613281 -3.988281 3.34375 -4.0625 3.03125 -4.0625 C 2.71875 -4.0625 2.441406 -3.988281 2.203125 -3.84375 C 1.972656 -3.695312 1.789062 -3.488281 1.65625 -3.21875 C 1.519531 -2.957031 1.453125 -2.65625 1.453125 -2.3125 C 1.453125 -1.96875 1.519531 -1.660156 1.65625 -1.390625 C 1.789062 -1.128906 1.972656 -0.925781 2.203125 -0.78125 C 2.441406 -0.632812 2.71875 -0.5625 3.03125 -0.5625 Z M 3.03125 -0.5625 "/></g></g></g><g fill="#004aad" fill-opacity="1"><g transform="translate(207.485845, 16.519853)"><g><path d="M 0.640625 0 L 0.640625 -6.71875 L 1.421875 -6.71875 L 1.421875 0 Z M 0.640625 0 "/></g></g></g><g fill="#004aad" fill-opacity="1"><g transform="translate(210.768616, 16.519853)"><g><path d="M 2.71875 0.109375 C 2.28125 0.109375 1.890625 0.0078125 1.546875 -0.1875 C 1.203125 -0.394531 0.929688 -0.675781 0.734375 -1.03125 C 0.546875 -1.394531 0.453125 -1.820312 0.453125 -2.3125 C 0.453125 -2.800781 0.546875 -3.222656 0.734375 -3.578125 C 0.929688 -3.941406 1.203125 -4.222656 1.546875 -4.421875 C 1.890625 -4.628906 2.289062 -4.734375 2.75 -4.734375 C 3.195312 -4.734375 3.582031 -4.628906 3.90625 -4.421875 C 4.226562 -4.222656 4.476562 -3.957031 4.65625 -3.625 C 4.832031 -3.300781 4.921875 -2.953125 4.921875 -2.578125 C 4.921875 -2.503906 4.914062 -2.429688 4.90625 -2.359375 C 4.90625 -2.296875 4.90625 -2.222656 4.90625 -2.140625 L 1.21875 -2.140625 C 1.238281 -1.785156 1.320312 -1.488281 1.46875 -1.25 C 1.613281 -1.019531 1.796875 -0.84375 2.015625 -0.71875 C 2.234375 -0.601562 2.46875 -0.546875 2.71875 -0.546875 C 3.039062 -0.546875 3.3125 -0.617188 3.53125 -0.765625 C 3.75 -0.921875 3.910156 -1.125 4.015625 -1.375 L 4.78125 -1.375 C 4.65625 -0.945312 4.414062 -0.59375 4.0625 -0.3125 C 3.71875 -0.03125 3.269531 0.109375 2.71875 0.109375 Z M 2.71875 -4.078125 C 2.351562 -4.078125 2.023438 -3.960938 1.734375 -3.734375 C 1.441406 -3.503906 1.273438 -3.175781 1.234375 -2.75 L 4.140625 -2.75 C 4.117188 -3.164062 3.972656 -3.488281 3.703125 -3.71875 C 3.441406 -3.957031 3.113281 -4.078125 2.71875 -4.078125 Z M 2.71875 -4.078125 "/></g></g></g><g fill="#004aad" fill-opacity="1"><g transform="translate(217.286567, 16.519853)"><g/></g></g><g fill="#004aad" fill-opacity="1"><g transform="translate(220.970247, 16.519853)"><g><path d="M 0.6875 0 L 0.6875 -6.53125 L 1.46875 -6.53125 L 1.46875 -3.640625 L 4.859375 -3.640625 L 4.859375 -6.53125 L 5.640625 -6.53125 L 5.640625 0 L 4.859375 0 L 4.859375 -3 L 1.46875 -3 L 1.46875 0 Z M 0.6875 0 "/></g></g></g><g fill="#004aad" fill-opacity="1"><g transform="translate(228.513758, 16.519853)"><g><path d="M 2.71875 0.109375 C 2.28125 0.109375 1.890625 0.0078125 1.546875 -0.1875 C 1.203125 -0.394531 0.929688 -0.675781 0.734375 -1.03125 C 0.546875 -1.394531 0.453125 -1.820312 0.453125 -2.3125 C 0.453125 -2.800781 0.546875 -3.222656 0.734375 -3.578125 C 0.929688 -3.941406 1.203125 -4.222656 1.546875 -4.421875 C 1.890625 -4.628906 2.289062 -4.734375 2.75 -4.734375 C 3.195312 -4.734375 3.582031 -4.628906 3.90625 -4.421875 C 4.226562 -4.222656 4.476562 -3.957031 4.65625 -3.625 C 4.832031 -3.300781 4.921875 -2.953125 4.921875 -2.578125 C 4.921875 -2.503906 4.914062 -2.429688 4.90625 -2.359375 C 4.90625 -2.296875 4.90625 -2.222656 4.90625 -2.140625 L 1.21875 -2.140625 C 1.238281 -1.785156 1.320312 -1.488281 1.46875 -1.25 C 1.613281 -1.019531 1.796875 -0.84375 2.015625 -0.71875 C 2.234375 -0.601562 2.46875 -0.546875 2.71875 -0.546875 C 3.039062 -0.546875 3.3125 -0.617188 3.53125 -0.765625 C 3.75 -0.921875 3.910156 -1.125 4.015625 -1.375 L 4.78125 -1.375 C 4.65625 -0.945312 4.414062 -0.59375 4.0625 -0.3125 C 3.71875 -0.03125 3.269531 0.109375 2.71875 0.109375 Z M 2.71875 -4.078125 C 2.351562 -4.078125 2.023438 -3.960938 1.734375 -3.734375 C 1.441406 -3.503906 1.273438 -3.175781 1.234375 -2.75 L 4.140625 -2.75 C 4.117188 -3.164062 3.972656 -3.488281 3.703125 -3.71875 C 3.441406 -3.957031 3.113281 -4.078125 2.71875 -4.078125 Z M 2.71875 -4.078125 "/></g></g></g><g fill="#004aad" fill-opacity="1"><g transform="translate(235.031709, 16.519853)"><g><path d="M 0.640625 0 L 0.640625 -4.625 L 1.359375 -4.625 L 1.421875 -3.734375 C 1.554688 -4.046875 1.769531 -4.289062 2.0625 -4.46875 C 2.363281 -4.644531 2.726562 -4.734375 3.15625 -4.734375 L 3.15625 -3.921875 L 2.9375 -3.921875 C 2.664062 -3.921875 2.414062 -3.867188 2.1875 -3.765625 C 1.957031 -3.671875 1.769531 -3.507812 1.625 -3.28125 C 1.488281 -3.050781 1.421875 -2.734375 1.421875 -2.328125 L 1.421875 0 Z M 0.640625 0 "/></g></g></g><g fill="#004aad" fill-opacity="1"><g transform="translate(239.629068, 16.519853)"><g><path d="M 2.71875 0.109375 C 2.28125 0.109375 1.890625 0.0078125 1.546875 -0.1875 C 1.203125 -0.394531 0.929688 -0.675781 0.734375 -1.03125 C 0.546875 -1.394531 0.453125 -1.820312 0.453125 -2.3125 C 0.453125 -2.800781 0.546875 -3.222656 0.734375 -3.578125 C 0.929688 -3.941406 1.203125 -4.222656 1.546875 -4.421875 C 1.890625 -4.628906 2.289062 -4.734375 2.75 -4.734375 C 3.195312 -4.734375 3.582031 -4.628906 3.90625 -4.421875 C 4.226562 -4.222656 4.476562 -3.957031 4.65625 -3.625 C 4.832031 -3.300781 4.921875 -2.953125 4.921875 -2.578125 C 4.921875 -2.503906 4.914062 -2.429688 4.90625 -2.359375 C 4.90625 -2.296875 4.90625 -2.222656 4.90625 -2.140625 L 1.21875 -2.140625 C 1.238281 -1.785156 1.320312 -1.488281 1.46875 -1.25 C 1.613281 -1.019531 1.796875 -0.84375 2.015625 -0.71875 C 2.234375 -0.601562 2.46875 -0.546875 2.71875 -0.546875 C 3.039062 -0.546875 3.3125 -0.617188 3.53125 -0.765625 C 3.75 -0.921875 3.910156 -1.125 4.015625 -1.375 L 4.78125 -1.375 C 4.65625 -0.945312 4.414062 -0.59375 4.0625 -0.3125 C 3.71875 -0.03125 3.269531 0.109375 2.71875 0.109375 Z M 2.71875 -4.078125 C 2.351562 -4.078125 2.023438 -3.960938 1.734375 -3.734375 C 1.441406 -3.503906 1.273438 -3.175781 1.234375 -2.75 L 4.140625 -2.75 C 4.117188 -3.164062 3.972656 -3.488281 3.703125 -3.71875 C 3.441406 -3.957031 3.113281 -4.078125 2.71875 -4.078125 Z M 2.71875 -4.078125 "/></g></g></g></svg>